<?xml version="1.0" encoding="iso-8859-1"?>
<!-- Generator: Adobe Illustrator 18.0.0, SVG Export Plug-In . SVG Version: 6.00 Build 0)  -->
<!DOCTYPE svg PUBLIC "-//W3C//DTD SVG 1.1//EN" "http://www.w3.org/Graphics/SVG/1.1/DTD/svg11.dtd">
<svg version="1.1" id="Capa_1" xmlns="http://www.w3.org/2000/svg" xmlns:xlink="http://www.w3.org/1999/xlink" x="0px" y="0px"
	 viewBox="0 0 82.546 82.64" style="enable-background:new 0 0 82.546 82.64;" xml:space="preserve">
<g>
	<path d="M79.968,38.67H68.812c-1.453,0-2.578,1.13-2.578,2.58s1.125,2.62,2.578,2.62h11.156c1.453,0,2.578-1.17,2.578-2.62
		S81.421,38.67,79.968,38.67z"/>
	<path d="M62.578,23.72l7.874-7.97c1.005-1.02,1.042-2.54,0-3.66c-0.975-1.04-2.584-1.08-3.656,0l-7.875,7.97
		c-1.004,1.02-1.078,2.58,0,3.66C59.906,24.7,61.599,24.71,62.578,23.72z"/>
	<path d="M62.578,58.92c-1.079-1.08-2.719-1.08-3.657,0c-1.078,0.94-1.01,2.65,0,3.66l7.875,7.87c0.797,0.99,2.86,0.99,3.656,0
		c1.079-0.93,1.078-2.58,0-3.65L62.578,58.92z"/>
	<path d="M41.25,16.41c1.453,0,2.625-1.13,2.625-2.58V2.58c0-1.45-1.172-2.58-2.625-2.58c-1.453,0-2.578,1.13-2.578,2.58v11.25
		C38.672,15.28,39.797,16.41,41.25,16.41z"/>
	<path d="M41.25,66.23c-1.453,0-2.578,1.13-2.578,2.58v11.25c0,1.36,1.125,2.58,2.578,2.58c1.453,0,2.625-1.22,2.625-2.67V68.81
		C43.875,67.36,42.703,66.23,41.25,66.23z"/>
	<path d="M55.406,27.09c-3.914-3.91-8.625-5.9-14.156-5.9c-5.532,0-10.266,1.97-14.203,5.9c-3.891,3.89-5.86,8.63-5.86,14.16
		s1.946,10.29,5.86,14.2c3.914,3.92,8.671,5.86,14.203,5.86c5.531,0,10.265-1.97,14.156-5.86c3.937-3.93,5.906-8.67,5.906-14.2
		S59.32,31.01,55.406,27.09z M51.796,51.8c-2.906,2.9-6.421,4.36-10.546,4.36c-4.078,0-7.594-1.46-10.5-4.36
		c-2.906-2.91-4.36-6.43-4.36-10.55c0-4.08,1.454-7.59,4.36-10.5c2.906-2.91,6.422-4.36,10.5-4.36c4.125,0,7.64,1.45,10.546,4.36
		c2.907,2.91,4.36,6.42,4.36,10.5C56.156,45.37,54.703,48.89,51.796,51.8z"/>
	<path d="M20.062,23.72c0.516,0.51,1.125,0.75,1.829,0.75c0.609,0,1.218-0.24,1.828-0.75c0.937-1.08,0.937-2.72,0-3.66l-7.969-7.97
		c-0.937-0.93-2.719-0.93-3.656,0c-1.078,1.08-1.01,2.65,0,3.66L20.062,23.72z"/>
	<path d="M19.969,58.92l-7.875,7.88c-1.078,1.07-1.078,2.67,0,3.75c0.984,0.98,2.672,0.98,3.656,0l7.969-7.97
		c1.01-1.01,0.937-2.72,0-3.66C22.641,57.84,21.047,57.84,19.969,58.92z"/>
	<path d="M16.406,41.25c0-1.45-1.125-2.58-2.578-2.58H2.578C1.125,38.67,0,39.8,0,41.25s1.125,2.62,2.578,2.62h11.25
		C15.281,43.87,16.406,42.7,16.406,41.25z"/>
</g>
<g>
</g>
<g>
</g>
<g>
</g>
<g>
</g>
<g>
</g>
<g>
</g>
<g>
</g>
<g>
</g>
<g>
</g>
<g>
</g>
<g>
</g>
<g>
</g>
<g>
</g>
<g>
</g>
<g>
</g>
</svg>
