<?xml version="1.0" encoding="iso-8859-1"?>
<!-- Generator: Adobe Illustrator 16.0.4, SVG Export Plug-In . SVG Version: 6.00 Build 0)  -->
<!DOCTYPE svg PUBLIC "-//W3C//DTD SVG 1.1//EN" "http://www.w3.org/Graphics/SVG/1.1/DTD/svg11.dtd">
<svg version="1.1" id="Capa_1" xmlns="http://www.w3.org/2000/svg" xmlns:xlink="http://www.w3.org/1999/xlink" x="0px" y="0px"
	 width="107.863px" height="107.863px" viewBox="0 0 107.863 107.863" style="enable-background:new 0 0 107.863 107.863;"
	 xml:space="preserve">
<g id="Cloud__x2B__Rain">
	<g>
		<path d="M92.854,30.246c0.125-1.053,0.238-2.257,0.238-3.145C93.092,12.159,80.945,0,66.018,0c-9.47,0-18.205,4.986-23.086,12.941
			c-3.012-2.036-6.565-3.135-10.282-3.135c-10.152,0-18.414,8.271-18.414,18.434c0,1.094,0.096,2.182,0.286,3.245
			C5.852,34.671,0,42.917,0,52.372C0,64.45,9.561,73.56,22.236,73.56h63.392c12.262,0,22.235-9.987,22.235-22.261
			C107.863,41.793,101.679,33.297,92.854,30.246z M85.628,68.298H22.236c-9.681,0-16.979-6.847-16.979-15.926
			c0-7.91,5.359-14.707,13.036-16.532c0.718-0.176,1.332-0.638,1.691-1.284c0.358-0.647,0.426-1.415,0.192-2.117
			c-0.456-1.349-0.685-2.764-0.685-4.198c0-7.264,5.904-13.172,13.157-13.172c3.488,0,6.773,1.35,9.249,3.802
			c0.614,0.607,1.482,0.878,2.328,0.718c0.845-0.156,1.56-0.713,1.916-1.5c3.531-7.79,11.333-12.826,19.875-12.826
			c12.028,0,21.817,9.797,21.817,21.84c0,1.309-0.387,3.982-0.489,4.625c-0.022,0.141-0.035,0.285-0.035,0.426
			c0,1.279,0.918,2.357,2.152,2.584c7.624,1.76,13.144,8.712,13.144,16.562C102.606,60.674,94.99,68.298,85.628,68.298z
			 M23.535,95.68c0,3.471,2.812,6.285,6.28,6.285c3.468,0,6.28-2.814,6.28-6.285c0,0-0.241-6.365-6.28-12.414
			C23.776,89.314,23.535,95.68,23.535,95.68z M72.015,95.685c0,3.466,2.812,6.285,6.28,6.285c3.468,0,6.282-2.819,6.282-6.285
			c0,0-0.243-6.37-6.282-12.414C72.258,89.314,72.015,95.685,72.015,95.685z M47.774,101.578c0,3.472,2.812,6.285,6.278,6.285
			c3.468,0,6.282-2.813,6.282-6.285c0,0-0.241-6.365-6.282-12.414C48.016,95.213,47.774,101.578,47.774,101.578z"/>
	</g>
</g>
<g>
</g>
<g>
</g>
<g>
</g>
<g>
</g>
<g>
</g>
<g>
</g>
<g>
</g>
<g>
</g>
<g>
</g>
<g>
</g>
<g>
</g>
<g>
</g>
<g>
</g>
<g>
</g>
<g>
</g>
</svg>
