<?xml version="1.0" encoding="iso-8859-1"?>
<!-- Generator: Adobe Illustrator 16.0.4, SVG Export Plug-In . SVG Version: 6.00 Build 0)  -->
<!DOCTYPE svg PUBLIC "-//W3C//DTD SVG 1.1//EN" "http://www.w3.org/Graphics/SVG/1.1/DTD/svg11.dtd">
<svg version="1.1" id="Capa_1" xmlns="http://www.w3.org/2000/svg" xmlns:xlink="http://www.w3.org/1999/xlink" x="0px" y="0px"
	 width="106.16px" height="108.751px" viewBox="0 0 106.16 108.751" style="enable-background:new 0 0 106.16 108.751;"
	 xml:space="preserve">
<g id="Cloud__x2B__Heavy_Rain">
	<g>
		<path d="M91.354,30.065c0.125-1.062,0.243-2.292,0.243-3.194C91.597,12.054,79.663,0,64.997,0C55.662,0,47.05,4.976,42.262,12.916
			c-2.972-2.056-6.488-3.159-10.165-3.159c-9.959,0-18.062,8.186-18.062,18.248c0,1.107,0.101,2.211,0.294,3.295
			C5.778,34.43,0,42.621,0,52.021c0,11.963,9.385,20.982,21.832,20.982h62.496c12.038,0,21.832-9.892,21.832-22.051
			C106.16,41.502,100.056,33.065,91.354,30.065z M84.328,67.956H21.832c-9.599,0-16.836-6.852-16.836-15.936
			c0-7.92,5.314-14.722,12.923-16.547c0.685-0.161,1.27-0.607,1.61-1.229c0.342-0.622,0.406-1.359,0.184-2.031
			c-0.452-1.35-0.68-2.764-0.68-4.208c0-7.279,5.861-13.197,13.063-13.197c3.461,0,6.725,1.354,9.187,3.812
			c0.582,0.577,1.407,0.843,2.21,0.683c0.806-0.146,1.485-0.688,1.823-1.435C48.812,10.082,56.54,5.052,64.997,5.052
			c11.91,0,21.601,9.785,21.601,21.819c0,1.238-0.349,3.762-0.483,4.63c-0.203,1.318,0.637,2.567,1.921,2.858
			c7.606,1.721,13.129,8.698,13.129,16.593C101.164,60.327,93.613,67.956,84.328,67.956z M27.801,80.024
			c-1.372-0.19-2.631,0.768-2.824,2.147l-1.668,11.923c-0.192,1.379,0.761,2.658,2.125,2.854c0.12,0.016,0.238,0.021,0.354,0.021
			c1.227,0,2.295-0.907,2.473-2.167l1.665-11.923C30.118,81.499,29.165,80.221,27.801,80.024z M45.086,80.024
			c-1.372-0.19-2.631,0.768-2.824,2.147l-3.333,23.7c-0.193,1.379,0.758,2.658,2.122,2.854c0.12,0.02,0.238,0.024,0.355,0.024
			c1.225,0,2.293-0.907,2.471-2.166l3.333-23.701C47.403,81.499,46.453,80.226,45.086,80.024z M62.988,80.024
			c-1.37-0.19-2.634,0.768-2.827,2.147l-3.33,23.7c-0.196,1.379,0.755,2.658,2.121,2.854c0.121,0.02,0.238,0.024,0.354,0.024
			c1.225,0,2.295-0.907,2.471-2.166l3.333-23.701C65.303,81.499,64.354,80.226,62.988,80.024z M80.271,80.024
			c-1.377-0.19-2.631,0.768-2.824,2.147l-1.668,11.923c-0.19,1.379,0.76,2.658,2.127,2.854c0.118,0.016,0.235,0.021,0.351,0.021
			c1.227,0,2.295-0.907,2.474-2.167l1.665-11.923C82.588,81.499,81.635,80.221,80.271,80.024z"/>
	</g>
</g>
<g>
</g>
<g>
</g>
<g>
</g>
<g>
</g>
<g>
</g>
<g>
</g>
<g>
</g>
<g>
</g>
<g>
</g>
<g>
</g>
<g>
</g>
<g>
</g>
<g>
</g>
<g>
</g>
<g>
</g>
</svg>
