<?xml version="1.0" encoding="utf-8"?>
<!-- Generator: Adobe Illustrator 16.0.4, SVG Export Plug-In . SVG Version: 6.00 Build 0)  -->
<!DOCTYPE svg PUBLIC "-//W3C//DTD SVG 1.1//EN" "http://www.w3.org/Graphics/SVG/1.1/DTD/svg11.dtd">
<svg version="1.1" id="Artwork" xmlns="http://www.w3.org/2000/svg" xmlns:xlink="http://www.w3.org/1999/xlink" x="0px" y="0px"
	 width="512px" height="512px" viewBox="0 0 512 512" enable-background="new 0 0 512 512" xml:space="preserve">
<path d="M442.578,269.551l-84.252,22.564l-32.475-18.734v-35.156l32.105-18.436l84.621,22.674c1.701,0.454,3.41,0.678,5.104,0.678
	c8.692,0,16.645-5.805,18.995-14.598c2.815-10.508-3.415-21.307-13.922-24.119l-46.391-12.43l42.766-24.553
	c9.426-5.414,12.688-17.449,7.273-26.879c-5.432-9.43-17.444-12.697-26.874-7.27l-42.854,24.611l12.427-46.407
	c2.812-10.505-3.41-21.306-13.921-24.118c-10.443-2.739-21.285,3.422-24.101,13.92l-22.58,84.256l-32.306,18.553L275.568,186.4
	v-37.154l61.931-61.93c7.688-7.692,7.688-20.151,0-27.844c-7.69-7.691-20.146-7.691-27.842,0l-34.089,34.088V44.074
	c0-10.872-8.818-19.688-19.691-19.688c-10.871,0-19.688,8.815-19.688,19.688v49.242l-33.841-33.844
	c-7.691-7.691-20.15-7.691-27.843,0c-7.691,7.692-7.691,20.151,0,27.844l61.684,61.683v37.544l-30.393,17.534l-32.306-18.536
	l-22.564-84.242c-2.811-10.498-13.603-16.676-24.1-13.92c-10.506,2.812-16.741,13.613-13.926,24.118l12.426,46.399l-42.852-24.604
	c-9.447-5.428-21.472-2.168-26.878,7.275c-5.411,9.432-2.148,21.459,7.281,26.873l42.762,24.553l-46.392,12.43
	c-10.507,2.812-16.74,13.611-13.926,24.119c2.355,8.793,10.307,14.598,19,14.598c1.693,0,3.403-0.224,5.109-0.678l84.632-22.682
	l32.069,18.412l0.033,35.188l-32.486,18.768l-84.248-22.598c-10.433-2.738-21.291,3.43-24.109,13.924
	c-2.814,10.503,3.419,21.305,13.926,24.102l46.222,12.398L62.828,344.59c-9.413,5.441-12.643,17.472-7.199,26.885
	c3.647,6.337,10.263,9.844,17.06,9.844c3.337,0,6.724-0.83,9.827-2.646l42.857-24.733L112.9,400.518
	c-2.815,10.522,3.42,21.29,13.926,24.119c1.701,0.461,3.41,0.678,5.104,0.678c8.689,0,16.641-5.814,18.996-14.613l22.676-84.605
	l32.252-18.609l30.335,17.503v38.026l-61.684,61.684c-7.691,7.691-7.691,20.148,0,27.842c3.846,3.846,8.875,5.752,13.921,5.752
	c5.029,0,10.076-1.906,13.922-5.752l33.841-33.842v49.225c0,10.891,8.817,19.689,19.688,19.689c10.873,0,19.691-8.799,19.691-19.689
	v-49.471l34.089,34.088c3.845,3.846,8.874,5.752,13.921,5.752s10.076-1.906,13.921-5.752c7.688-7.693,7.688-20.15,0-27.842
	l-61.931-61.93v-37.626l30.595-17.657l32.243,18.609l22.676,84.605c2.352,8.799,10.304,14.613,18.992,14.613
	c1.689,0,3.403-0.217,5.108-0.678c10.511-2.829,16.732-13.597,13.921-24.119l-12.488-46.578l42.873,24.733
	c3.104,1.815,6.491,2.646,9.828,2.646c6.797,0,13.412-3.507,17.059-9.844c5.443-9.413,2.215-21.443-7.199-26.885l-42.641-24.615
	l46.221-12.398c10.507-2.797,16.737-13.599,13.922-24.102C463.88,272.98,453.067,266.799,442.578,269.551z M286.472,273.381
	L256,290.98l-30.45-17.6l-0.034-35.219L256,220.574l30.472,17.613V273.381z"/>
</svg>
