<?xml version="1.0" encoding="utf-8"?>
<!-- Generator: Adobe Illustrator 16.0.0, SVG Export Plug-In . SVG Version: 6.00 Build 0)  -->
<!DOCTYPE svg PUBLIC "-//W3C//DTD SVG 1.1//EN" "http://www.w3.org/Graphics/SVG/1.1/DTD/svg11.dtd">
<svg version="1.1" id="Layer_1" xmlns="http://www.w3.org/2000/svg" xmlns:xlink="http://www.w3.org/1999/xlink" x="0px" y="0px"
	 width="48px" height="48px" viewBox="0 0 48 48" enable-background="new 0 0 48 48" xml:space="preserve">
<g>
	<path d="M41.077,18.741c0-3.771-3.069-6.844-6.84-6.844s-6.839,3.065-6.839,6.837c0,1.078,0.874,1.95,1.951,1.95
		c1.078,0,1.952-0.874,1.952-1.952c0-1.618,1.316-2.936,2.936-2.936s2.937,1.318,2.937,2.938c0,2.147-1.747,3.896-3.896,3.896H3.021
		c-1.078,0-1.952,0.881-1.952,1.959c0,1.077,0.874,1.958,1.952,1.958h30.258C37.578,26.548,41.077,23.041,41.077,18.741z"/>
	<path d="M2.532,18.612h10.843c3.655,0,6.629-2.986,6.629-6.643c0-3.188-2.594-5.789-5.782-5.789S8.439,8.771,8.439,11.96
		c0,0.809,0.655,1.463,1.464,1.463c0.808,0,1.464-0.656,1.464-1.465c0-1.574,1.28-2.855,2.854-2.855s2.855,1.288,2.855,2.862
		c0,2.042-1.661,3.71-3.702,3.71H2.532c-0.809,0-1.464,0.66-1.464,1.469S1.724,18.612,2.532,18.612z"/>
	<path d="M39.134,29.948H10.826c-1.077,0-1.951,0.881-1.951,1.958c0,1.078,0.874,1.958,1.951,1.958h28.308
		c2.147,0,3.895,1.739,3.895,3.887c0,1.619-1.317,2.933-2.937,2.933c-1.618,0-2.936-1.319-2.936-2.938
		c0-1.077-0.874-1.952-1.951-1.952c-1.078,0-1.952,0.873-1.952,1.951c0,3.771,3.068,6.839,6.839,6.839
		c3.771,0,6.84-3.066,6.84-6.838C46.932,33.445,43.434,29.948,39.134,29.948z"/>
</g>
</svg>
